<svg width="24" height="24" viewBox="0 0 24 24" fill="none" xmlns="http://www.w3.org/2000/svg">
    <path fill-rule="evenodd" clip-rule="evenodd" d="M21 3H3C1.89543 3 1 3.89543 1 5V19C1 20.1046 1.89543 21 3 21H21C22.1046 21 23 20.1046 23 19V5C23 3.89543 22.1046 3 21 3ZM3 5H21V5.56987L12.1015 14H11.8985L3 5.56987V5ZM3 8.32487L3 16.216L7.21883 12.3217L3 8.32487ZM3 19V18.9378L8.674 13.7002L11.1015 16H12.8985L15.326 13.7002L21 18.9378V19H3ZM21 16.216V8.32487L16.7812 12.3217L21 16.216Z" fill="#241C15"/>
</svg>
