<svg fill="none" height="24" viewBox="0 0 24 24" width="24" xmlns="http://www.w3.org/2000/svg"><path clip-rule="evenodd" d="m16.5 8.91423c0 2.55627-1.9437 4.62857-4.5 4.62857-2.55629 0-4.49998-2.0723-4.49998-4.62857 0-2.55629 1.94369-4.62857 4.49998-4.62857 2.5563 0 4.5 2.07228 4.5 4.62857zm1.6714 0c0 3.40837-2.763 6.17147-6.1714 6.17147-3.40839 0-6.17143-2.7631-6.17143-6.17147 0-3.40839 2.76304-6.17143 6.17143-6.17143 3.4084 0 6.1714 2.76304 6.1714 6.17143zm-13.40781 12.34287c0-1.8462 1.49665-3.3429 3.34286-3.3429h7.73975c1.8462 0 3.3429 1.4967 3.3429 3.3429h1.8109c0-2.6983-2.1874-4.8857-4.8857-4.8857h-8.22859c-2.6983 0-4.88571 2.1874-4.88571 4.8857z" fill="#241c15" fill-rule="evenodd"/></svg>