<svg class="icon-convo" width="24" height="24" viewBox="0 0 24 24" fill="none" xmlns="http://www.w3.org/2000/svg">
    <g clip-path="url(#clip0_1_2215)">
        <path fill-rule="evenodd" clip-rule="evenodd" d="M24 11C24 12.6569 22.6569 14 21 14H20V18H17.2361C16.4785 18 15.786 17.572 15.4472 16.8944L14 14H9C7.34315 14 6 12.6569 6 11V3C6 1.34315 7.34315 0 9 0H21C22.6569 0 24 1.34315 24 3V11ZM21 12H18V16H17.2361L15.2361 12H9C8.44771 12 8 11.5523 8 11V3C8 2.44772 8.44772 2 9 2H21C21.5523 2 22 2.44772 22 3V11C22 11.5523 21.5523 12 21 12Z" fill="#241C15"/>
        <path d="M15 20C15.0757 20 15.1507 19.9972 15.225 19.9917C14.6199 19.5354 14.1157 18.9395 13.7639 18.2361L13.6459 18H8.76393L6.76393 22H6V18H3C2.44772 18 2 17.5523 2 17V9C2 8.44771 2.44771 8 3 8V6C1.34315 6 0 7.34315 0 9V17C0 18.6569 1.34315 20 3 20H4V24H6.76393C7.52148 24 8.214 23.572 8.55279 22.8944L10 20H15Z" fill="#241C15"/>
    </g>
    <defs>
        <clipPath id="clip0_1_2215">
            <rect width="24" height="24" fill="white"/>
        </clipPath>
    </defs>
</svg>
