<svg width="18" height="18" viewBox="0 0 18 18" fill="none" xmlns="http://www.w3.org/2000/svg">
<path d="M5.78033 3.21875L3.53033 0.96875L2.46967 2.02941L4.71967 4.27941L5.78033 3.21875Z" fill="#F6F6F4"/>
<path fill-rule="evenodd" clip-rule="evenodd" d="M9.69231 1.96061C9.57586 1.68112 9.30278 1.49907 9 1.49907C8.69723 1.49907 8.42415 1.68112 8.30769 1.96061L6.625 5.99907H3C2.69375 5.99907 2.41826 6.18527 2.30408 6.46944C2.1899 6.75361 2.25996 7.07866 2.48107 7.29056L5.3863 10.0747L3.80515 13.9668C3.68768 14.256 3.76157 14.5877 3.99069 14.7996C4.21981 15.0116 4.55624 15.0595 4.83541 14.9199L9 12.8376L13.1646 14.9199C13.4438 15.0595 13.7802 15.0116 14.0093 14.7996C14.2384 14.5877 14.3123 14.256 14.1949 13.9668L12.6137 10.0747L15.5189 7.29056C15.74 7.07866 15.8101 6.75361 15.6959 6.46944C15.5817 6.18527 15.3063 5.99907 15 5.99907H11.375L9.69231 1.96061ZM7.81731 7.03753L9 4.19907L10.1827 7.03753C10.2991 7.31702 10.5722 7.49907 10.875 7.49907H13.1334L11.2083 9.34394C10.9865 9.55656 10.9168 9.88301 11.0324 10.1677L12.0566 12.6889L9.33541 11.3282C9.12427 11.2227 8.87574 11.2227 8.66459 11.3282L5.94336 12.6889L6.96758 10.1677C7.08324 9.88301 7.01352 9.55656 6.79166 9.34394L4.86658 7.49907H7.125C7.42778 7.49907 7.70086 7.31702 7.81731 7.03753Z" fill="#F6F6F4"/>
<path d="M0 9.74907H3V11.2491H0V9.74907Z" fill="#F6F6F4"/>
<path d="M18 9.74907H15V11.2491H18V9.74907Z" fill="#F6F6F4"/>
<path d="M9.75 14.9991V17.9991H8.25V14.9991H9.75Z" fill="#F6F6F4"/>
<path d="M13.2803 4.27941L15.5303 2.02941L14.4697 0.96875L12.2197 3.21875L13.2803 4.27941Z" fill="#F6F6F4"/>
</svg>
